<svg width="204" height="40" viewBox="0 0 204 40" fill="white" xmlns="http://www.w3.org/2000/svg" class="fill-current text-brand-white">
    <path d="M9.30548 29.7342C14.3107 29.7342 17.5183 26.7402 17.8355 22.5133H13.923C13.6762 25.1199 11.7376 26.4584 9.48172 26.4584C6.34465 26.4584 4.37076 24.345 4.37076 20.3294V20.0477C4.37076 16.2435 6.45039 13.9892 9.37598 13.9892C11.6319 13.9892 13.2533 15.0106 13.6057 17.4763H17.7298C17.2363 12.4041 13.3943 10.5724 9.30548 10.5724C4.15927 10.5724 0 14.2709 0 20.1181V20.3999C0 26.2823 4.01828 29.7342 9.30548 29.7342ZM27.7201 29.7342C32.4433 29.7342 35.5804 27.6208 36.1796 23.7462H32.0556C31.7383 25.5426 30.3989 26.5641 27.8258 26.5641C24.6535 26.5641 22.8911 24.5915 22.7501 21.1044H36.2501V19.8715C36.2501 13.2847 32.1261 10.5724 27.5438 10.5724C22.2919 10.5724 18.3793 14.3766 18.3793 20.0829V20.3647C18.3793 26.1766 22.2919 29.7342 27.7201 29.7342ZM32.0203 18.2512H22.8206C23.2436 15.3981 24.9707 13.6721 27.5438 13.6721C30.1874 13.6721 31.8088 15.0811 32.0203 18.2512ZM42.4336 29.382V18.533C42.4336 15.6094 44.3722 14.13 46.7691 14.13C49.307 14.13 50.4349 15.3981 50.4349 18.1808V29.382H54.6999V17.7933C54.6999 12.7211 52.0916 10.5724 48.3905 10.5724C45.3592 10.5724 43.3148 12.0871 42.4336 13.8835V10.9599H38.1686V29.382H42.4336ZM63.9853 29.699C65.2894 29.699 66.2059 29.4877 66.8756 29.2411V25.8596C66.2764 26.1062 65.6419 26.2118 64.796 26.2118C63.4565 26.2118 62.6811 25.4721 62.6811 23.8518V14.1653H66.7346V10.9599H62.6811V6.90915H58.4161V10.9599H55.9487V14.1653H58.4161V24.2393C58.4161 27.7265 60.3195 29.699 63.9853 29.699ZM73.8346 29.7342C76.6544 29.7342 78.2758 28.7127 79.4743 27.1277V29.382H83.6688V17.3002C83.6688 12.2632 80.426 10.5724 76.3019 10.5724C72.1779 10.5724 68.7589 12.3689 68.4064 16.6662H72.5304C72.7419 14.8345 73.8346 13.7778 76.0552 13.7778C78.5578 13.7778 79.4038 15.0106 79.4038 17.4763V18.4274H77.1126C71.8254 18.4274 67.6662 19.9772 67.6662 24.2745C67.6662 28.1139 70.4508 29.7342 73.8346 29.7342ZM74.8568 26.6697C72.7419 26.6697 71.8959 25.6483 71.8959 24.0984C71.8959 21.8441 73.9756 21.1044 77.2184 21.1044H79.4038V22.936C79.4038 25.296 77.4651 26.6697 74.8568 26.6697ZM92.8484 29.7342C95.8445 29.7342 97.7831 28.29 98.6995 26.4936V29.382H102.965V10.9599H98.6995V21.9145C98.6995 24.8381 96.6904 26.3175 94.3993 26.3175C91.9319 26.3175 90.7687 25.0494 90.7687 22.2668V10.9599H86.5037V22.7599C86.5037 27.656 89.2178 29.7342 92.8484 29.7342ZM110.382 29.382V19.8011C110.382 15.8912 112.638 14.6936 116.374 14.6584V10.6781C113.272 10.7133 111.545 12.0871 110.382 14.4118V10.9599H106.117V29.382H110.382ZM126.082 29.7342C131.51 29.7342 135.564 26.0005 135.564 20.259V19.9772C135.564 14.3414 131.51 10.5724 126.117 10.5724C120.689 10.5724 116.636 14.3766 116.636 20.0829V20.3647C116.636 25.9653 120.654 29.7342 126.082 29.7342ZM126.117 26.4232C122.875 26.4232 121.007 24.0632 121.007 20.2942V20.0124C121.007 16.2083 122.945 13.9187 126.117 13.9187C129.29 13.9187 131.193 16.2435 131.193 20.0477V20.2942C131.193 24.0632 129.29 26.4232 126.117 26.4232Z"></path><path fill="#F8C02A" d="M183.63 0L183.961 0.00267943C194.861 0.179295 203.643 9.06476 203.643 20C203.643 31.0457 194.683 40 183.63 40C174.685 40 167.11 34.1359 164.546 26.0449L170.957 26.045C173.216 30.7676 178.042 34.0299 183.63 34.0299C191.383 34.0299 197.669 27.7485 197.669 20C197.669 12.3924 191.61 6.19905 184.051 5.97635L183.63 5.97015H144.868C141.677 5.97015 139.071 3.46689 138.906 0.317068L138.897 0H183.63ZM177.734 17.0896C180.925 17.0896 183.531 19.5928 183.696 22.7426L183.704 23.0597H156.069C152.878 23.0597 150.272 20.5564 150.107 17.4066L150.099 17.0896H177.734ZM174.974 8.95281C173.236 10.3151 171.827 12.0784 170.887 14.1033L164.5 14.1033C165.068 12.2594 165.897 10.5293 166.942 8.95546L174.974 8.95281Z"></path>
</svg>