<svg viewBox="0 0 204 40" fill="white" xmlns="http://www.w3.org/2000/svg" class="fill-current text-brand-white">
    <path fill="black" d="M183.63 0L183.961 0.00267943C194.861 0.179295 203.643 9.06476 203.643 20C203.643 31.0457 194.683 40 183.63 40C174.685 40 167.11 34.1359 164.546 26.0449L170.957 26.045C173.216 30.7676 178.042 34.0299 183.63 34.0299C191.383 34.0299 197.669 27.7485 197.669 20C197.669 12.3924 191.61 6.19905 184.051 5.97635L183.63 5.97015H144.868C141.677 5.97015 139.071 3.46689 138.906 0.317068L138.897 0H183.63ZM177.734 17.0896C180.925 17.0896 183.531 19.5928 183.696 22.7426L183.704 23.0597H156.069C152.878 23.0597 150.272 20.5564 150.107 17.4066L150.099 17.0896H177.734ZM174.974 8.95281C173.236 10.3151 171.827 12.0784 170.887 14.1033L164.5 14.1033C165.068 12.2594 165.897 10.5293 166.942 8.95546L174.974 8.95281Z"></path>
</svg>